<?xml version="1.0" encoding="UTF-8"?>
<svg width="72px" height="72px" viewBox="0 0 72 72" version="1.1" xmlns="http://www.w3.org/2000/svg" xmlns:xlink="http://www.w3.org/1999/xlink">
    <!-- Generator: sketchtool 42 (36781) - http://www.bohemiancoding.com/sketch -->
    <title>267DB900-8AA5-4962-A19E-AD7A2982A5A6</title>
    <desc>Created with sketchtool.</desc>
    <defs></defs>
    <g id="Page-1" stroke="none" stroke-width="1" fill="none" fill-rule="evenodd">
        <g id="popup-publicar-habitación-" transform="translate(-53.000000, -122.000000)" stroke="#0EDC84" stroke-width="2" fill="#0EDC84">
            <g id="cancel-green" transform="translate(53.000000, 122.000000)">
                <path d="M21.4338561,23.5738086 C20.8553813,22.9953337 20.8553813,22.0325574 21.4338561,21.4338561 C22.0325574,20.8553813 22.9751073,20.8553813 23.5738086,21.4338561 L36.4148716,34.296494 L49.2775095,21.4338561 C49.8559843,20.8553813 50.8187607,20.8553813 51.3958871,21.4338561 C51.9945884,22.0325574 51.9945884,22.9966821 51.3958871,23.5738086 L38.5548241,36.4162201 L51.3958871,49.2788579 C51.9945884,49.8573328 51.9945884,50.8201091 51.3958871,51.4188104 C50.8174123,51.9972852 49.8546359,51.9972852 49.2775095,51.4188104 L36.4148716,38.5561725 L23.5738086,51.4188104 C22.9751073,51.9972852 22.0325574,51.9972852 21.4338561,51.4188104 C20.8553813,50.8201091 20.8553813,49.8559843 21.4338561,49.2788579 L34.2749192,36.4162201 L21.4338561,23.5738086 Z" id="Shape"></path>
            </g>
        </g>
    </g>
</svg>